<svg width="16" height="18" viewBox="0 0 16 18" fill="none" xmlns="http://www.w3.org/2000/svg">
<g id="Group 310">
<path id="Vector" d="M13.0021 6.12458C13.0021 4.85132 12.4963 3.6302 11.596 2.72987C10.6957 1.82953 9.47454 1.32373 8.20128 1.32373C6.92801 1.32373 5.7069 1.82953 4.80656 2.72987C3.90623 3.6302 3.40043 4.85132 3.40043 6.12458C3.40043 11.7256 1 13.3259 1 13.3259H15.4026C15.4026 13.3259 13.0021 11.7256 13.0021 6.12458Z" stroke="#909090" stroke-linecap="round" stroke-linejoin="round"/>
<path id="Vector_2" d="M9.58538 16.5264C9.44471 16.7689 9.2428 16.9702 8.99986 17.1101C8.75693 17.25 8.48149 17.3237 8.20114 17.3237C7.92079 17.3237 7.64535 17.25 7.40242 17.1101C7.15948 16.9702 6.95757 16.7689 6.81689 16.5264" stroke="#909090" stroke-linecap="round" stroke-linejoin="round"/>
</g>
</svg>
