<svg width="20" height="21" viewBox="0 0 20 21" fill="none" xmlns="http://www.w3.org/2000/svg">
<g id="Group 719">
<path id="Vector" d="M14.1207 1.2041H5.07247C2.57386 1.2041 0.54834 3.32845 0.54834 5.94897V15.4387C0.54834 18.0592 2.57386 20.1836 5.07247 20.1836H14.1207C16.6193 20.1836 18.6449 18.0592 18.6449 15.4387V5.94897C18.6449 3.32845 16.6193 1.2041 14.1207 1.2041Z" stroke="#909090" stroke-linecap="round" stroke-linejoin="round"/>
<path id="Vector_2" d="M13.5346 9.75766C13.6575 10.5474 13.516 11.354 13.1303 12.0627C12.7446 12.7714 12.1344 13.3461 11.3864 13.7051C10.6384 14.064 9.79074 14.189 8.96397 14.0621C8.13721 13.9353 7.37344 13.5631 6.78131 12.9986C6.18918 12.434 5.79884 11.7058 5.6658 10.9175C5.53276 10.1292 5.66381 9.32103 6.0403 8.60786C6.41678 7.89468 7.01954 7.31286 7.76283 6.94513C8.50613 6.5774 9.35211 6.4425 10.1805 6.55962C11.0254 6.67908 11.8076 7.05447 12.4116 7.63035C13.0156 8.20623 13.4093 8.95205 13.5346 9.75766Z" stroke="#909090" stroke-linecap="round" stroke-linejoin="round"/>
</g>
</svg>
