<svg width="21" height="20" viewBox="0 0 21 20" fill="none" xmlns="http://www.w3.org/2000/svg">
<g id="Group 334">
<path id="Vector" d="M14.0909 6.70654C15.5788 6.70654 17.0058 7.28617 18.058 8.31792C19.1101 9.34967 19.7012 10.749 19.7012 12.2081V18.6266H15.961V12.2081C15.961 11.7218 15.7639 11.2553 15.4132 10.9114C15.0625 10.5675 14.5868 10.3743 14.0909 10.3743C13.5949 10.3743 13.1192 10.5675 12.7685 10.9114C12.4178 11.2553 12.2207 11.7218 12.2207 12.2081V18.6266H8.48047V12.2081C8.48047 10.749 9.07156 9.34967 10.1237 8.31792C11.1759 7.28617 12.6029 6.70654 14.0909 6.70654Z" stroke="#909090" stroke-linecap="round" stroke-linejoin="round"/>
<path id="Vector_2" d="M4.74026 7.62256H1V18.6257H4.74026V7.62256Z" stroke="#909090" stroke-linecap="round" stroke-linejoin="round"/>
<path id="Vector_3" d="M2.87013 4.87182C3.90297 4.87182 4.74026 4.05078 4.74026 3.03796C4.74026 2.02515 3.90297 1.2041 2.87013 1.2041C1.83728 1.2041 1 2.02515 1 3.03796C1 4.05078 1.83728 4.87182 2.87013 4.87182Z" stroke="#909090" stroke-linecap="round" stroke-linejoin="round"/>
</g>
</svg>
