<svg width="16" height="16" viewBox="0 0 16 16" fill="none" xmlns="http://www.w3.org/2000/svg">
<path id="Vector" d="M14.9996 11.544V13.6107C15.0004 13.8026 14.9602 13.9925 14.8817 14.1683C14.8031 14.3441 14.6879 14.5019 14.5435 14.6316C14.399 14.7613 14.2285 14.86 14.0428 14.9215C13.8571 14.983 13.6603 15.0058 13.465 14.9885C11.299 14.7582 9.2183 14.0338 7.39023 12.8736C5.68945 11.8159 4.24748 10.4047 3.16674 8.74023C1.9771 6.94304 1.23677 4.89687 1.00571 2.76749C0.988123 2.57699 1.01126 2.38499 1.07364 2.20371C1.13603 2.02244 1.2363 1.85586 1.36807 1.71459C1.49984 1.57332 1.66022 1.46045 1.839 1.38316C2.01779 1.30588 2.21106 1.26587 2.40651 1.26569H4.51826C4.85987 1.2624 5.19105 1.38079 5.45007 1.5988C5.70909 1.8168 5.87828 2.11954 5.92609 2.4506C6.01522 3.11198 6.18052 3.76138 6.41883 4.3864C6.51354 4.63297 6.53403 4.90095 6.47789 5.15857C6.42175 5.41619 6.29132 5.65267 6.10207 5.83997L5.20809 6.71487C6.21016 8.43956 7.6693 9.86758 9.43159 10.8483L10.3256 9.97336C10.517 9.78814 10.7586 9.6605 11.0218 9.60555C11.2851 9.55061 11.5589 9.57067 11.8108 9.66336C12.4495 9.89658 13.113 10.0584 13.7888 10.1456C14.1308 10.1928 14.4431 10.3614 14.6663 10.6192C14.8895 10.877 15.0081 11.2062 14.9996 11.544Z" stroke="#909090" stroke-linecap="round" stroke-linejoin="round"/>
</svg>
