<svg width="23" height="19" viewBox="0 0 23 19" fill="none" xmlns="http://www.w3.org/2000/svg">
<path id="Vector" d="M21.9032 1.17464C20.9933 1.80338 19.9859 2.28426 18.9197 2.59876C18.3475 1.9542 17.587 1.49734 16.7411 1.28999C15.8952 1.08264 15.0047 1.1348 14.19 1.43941C13.3753 1.74402 12.6758 2.28639 12.186 2.99316C11.6963 3.69993 11.4399 4.537 11.4516 5.39116V6.32195C9.78185 6.36437 8.1273 6.00159 6.63532 5.26591C5.14334 4.53024 3.86024 3.44452 2.90029 2.10544C2.90029 2.10544 -0.900291 10.4826 7.65102 14.2058C5.69422 15.507 3.36316 16.1595 1 16.0674C9.55131 20.7214 20.0029 16.0674 20.0029 5.36323C20.002 5.10396 19.9766 4.84533 19.9269 4.59067C20.8966 3.65382 21.5809 2.47098 21.9032 1.17464Z" stroke="#909090" stroke-linecap="round" stroke-linejoin="round"/>
</svg>
